Poster: 
http://imgh.us/racha-vanavana.jpg

Info:

Format : AVI
Format/Info : Audio Video Interleave
File size : 698 MiB
Duration : 2h 23mn
Overall bit rate mode : Variable
Overall bit rate : 678 Kbps
Writing application : VirtualDubMod 1.5.10.3 | www.virtualdub-fr.org || (build 2550/release)
Writing library : VirtualDubMod build 2550/release

Video
ID : 0
Format : MPEG-4 Visual
Format profile : Advanced Simple@L5
Format settings, BVOP : 1
Format settings, QPel : No
Format settings, GMC : No warppoints
Format settings, Matrix : Custom
Codec ID : XVID
Codec ID/Hint : XviD
Duration : 2h 23mn
Bit rate : 589 Kbps
Width : 608 pixels
Height : 256 pixels
Display aspect ratio : 2.40:1
Frame rate : 23.976 fps
Color space : YUV
Chroma subsampling : 4:2:0
Bit depth : 8 bits
Scan type : Progressive
Compression mode : Lossy
Bits/(Pixel*Frame) : 0.158
Stream size : 606 MiB (87%)
Writing library : XviD 1.2.1 (UTC 2008-12-04)

Audio
ID : 1
Format : MPEG Audio
Format version : Version 1
Format profile : Layer 3
Mode : Joint stereo
Mode extension : MS Stereo
Codec ID : 55
Codec ID/Hint : MP3
Duration : 2h 23mn
Bit rate mode : Variable
Bit rate : 80.0 Kbps
Channel(s) : 2 channels
Sampling rate : 32.0 KHz
Compression mode : Lossy
Stream size : 81.6 MiB (12%)
Alignment : Aligned on interleaves
Interleave, duration : 36 ms (0.86 video frame)
Interleave, preload duration : 247 ms
Writing library : LAME3.90.
Encoding settings : -m j -V 4 -q 2 -lowpass 13.6 --abr 80


SCREENS; 
http://imgh.us/1_80.png 
http://imgh.us/2_36.png 
http://imgh.us/3_27.png 
http://imgh.us/4_14.png 
http://imgh.us/5_5.png 
http://imgh.us/6_9.png 
http://imgh.us/7_3.png 
http://imgh.us/8_3.png 
http://imgh.us/9_3.png 
http://imgh.us/11_7.png